<svg version="1.1" id="Ebene_1" xmlns="http://www.w3.org/2000/svg" x="0" y="0" width="124.7" height="47.3" xml:space="preserve"><style>.st0{fill-rule:evenodd;clip-rule:evenodd}.st0,.st1{fill:#c02b46}</style><g id="svg_1"><path id="svg_3" class="st0" d="M42 11.1s.7 1.3 2.7 3.5c.8.9 2.1 2.2 3.5 3.1 1.3 1 2.9 1.9 4.3 2.5 3 1.4 6.9 2.3 11.3 2.1 2.2-.1 3.1-.5 3.1-.5s-2.2-.2-4.2-1c-1.8-.7-2.7-1.5-3.8-2.2-1-.7-2.5-2.3-3.2-3.5-1-1.5-1.3-2.7-1.3-2.7s-2 .3-3.4.3c-1.5 0-3.6 0-5.2-.4-2-.6-3.8-1.2-3.8-1.2"/><path id="svg_4" class="st0" d="M60.3 6.8c0-2.8 2.3-5.1 5.1-5 2.8 0 5.1 2.3 5 5.1 0 2.8-2.3 5.1-5.1 5-2.8-.1-5-2.3-5-5.1"/><path id="svg_5" class="st0" d="M62.3 19.6c2.1-.6 3.6-1.4 5.3-2.7 1.4-1.1 2-1.8 3-3.2.8-1.2 1.2-1.9 1.6-3.2.4-1.1.6-1.8.7-2.9 1.9.5 3.1.6 5 .6 2.2 0 3.2-.2 5.3-.6 0 0-.2.6-.7 1.6-.6 1.1-1.1 2.2-1.7 3.1-1.1 1.7-1.8 2.6-3.3 4-1.3 1.2-2 1.9-3.5 2.7-1.4.8-2.2 1.2-3.8 1.5-1.2.2-2 .3-3.3.2-1.9 0-2.9-.4-4.6-1.1"/><path id="svg_6" class="st1" d="M56.3 46.1c-.1-.1-.1-.1 0 0"/><path id="svg_7" class="st1" d="M65.2 29.2h-.3l-.9.1h-1.2c-1.3.1-1.8.1-2.2.1-.4 0-1.6 0-3.3-.1h-.9c0 .3.1 1.6.1 1.6v12.2l-.1 1.6-.1 1.5h6.2l2.6.1v-1.6l.1-.6-5 .2H60V38h1.5l1.6.1h1l.9.1c0-.2-.1-.5-.1-.5v-.2-.4-.6l.1-.5c-.2 0-1.1.1-1.1.1l-1.2.1H60V31h1.5c.7 0 1.2 0 1.6.1l1 .1 1 .1c0-.2-.1-.5-.1-.5v-1.1l.2-.5"/><path id="svg_8" class="st1" d="M75.2 36.3l-1.1-.6c-.2-.1-.3-.2-.6-.2-1.2-.7-1.7-1-2-1.6-.2-.4-.4-.8-.4-1.2 0-.3.1-.5.2-.8.4-.8 1-1.2 2-1.2.3 0 .7 0 1.1.2.9.3 1.4.8 1.9 1.8 0 0 0 .1.1.1 0 0 0 .1.1.1h.5c0-.1.1-.5.1-.5l.1-.6c0-.2.1-.5.3-.9l.3-.8-.8-.4c-1.2-.5-2.1-.7-3.2-.7-1.5 0-2.8.4-3.7 1.2-1.2.9-1.7 1.9-1.7 3.4-.1 2.4.8 4 3 5.1l.9.5c2 1.1 2.5 1.5 2.8 2.2.2.4.2.8.2 1.2 0 .3-.1.6-.2.8-.5.8-1.2 1.2-2.4 1.2-.4 0-.8-.1-1.2-.2-.9-.4-1.4-.9-1.9-2v-.1-.1L69 42v.8l-.1.8c0 .2-.1.5-.2.8v.2l-.2.9c.1.1.5.2.5.2l.6.2c.1.1.3.1.5.2l.4.1c1.1.2 2 .2 2.9.2 1.3-.1 2.7-.6 3.5-1.5 1.1-1 1.7-2.3 1.7-4-.4-2.1-1.3-3.5-3.4-4.6"/><path id="svg_9" class="st1" d="M74.2 35.7z"/><path id="svg_10" class="st1" d="M93.8 29.8c-1.8-.8-2.7-1-4.7-1-.5 0-1 0-1.5.1-2.1.2-3.9 1.1-5.1 2.5-1.2 1.4-2 3.3-2.1 5.5v.9c0 .4 0 .7.1 1.1.3 2.9 1.2 4.7 3.3 6.1 1.3.9 2.9 1.4 4.5 1.5h.7c1.3 0 2.5-.2 3.6-.6l.6-.2.6-.2.6-2.4-.4-.2-.1.1-.2.2c-1.4 1.3-2.7 1.8-4.3 1.7-1.6-.1-2.8-.7-3.9-2.1-.7-1-1.2-2.4-1.3-4.2 0-.4-.1-.8-.1-1.2 0-3.8 1.9-6.5 4.9-6.9h.7c1.5.1 2.4.6 3.5 2l.1.1c.1.1.2.2.2.3h.3l.5-2.7c-.2-.2-.3-.3-.5-.4"/><path id="svg_11" class="st1" d="M123.6 29.2h-.3l-.9.1h-1.2c-1.4.1-2 .1-2.4.1-.8 0-1.9 0-3.1-.1h-.9c0 .3.1 1.6.1 1.6v12.2l-.1 1.6-.1 1.5h6.1l2.6.1v-1.6l.1-.6-5.2.2h-.1V38H119.9l1.6.1h1l.9.1c0-.2-.1-.5-.1-.5v-.2-.4-.6l.1-.5c-.2 0-1.1.1-1.1.1l-1.2.1h-2.9V31H119.9c.7 0 1.2 0 1.6.1l1 .1 1 .1c0-.2-.1-.5-.1-.5v-1.1l.2-.5"/><path id="svg_12" class="st0" d="M15.1 33.4l.1-2 .1-2c-.2 0-.8.1-.8.1h-.8c-.5 0-1.1 0-1.7-.1h-.4c0 .3.1 1.5.1 1.5l.1 1.6v3.7H5.1v-3.9l.1-1.5.1-1.4c-.2 0-.7.1-.7.1h-.8c-.4 0-1 0-1.8-.1-.2 0-.3 0-.4-.1v.7l.1 2v7.1c0 2.4 0 3.6-.1 4.6l-.1 1.2-.1 1.2h3l.8.1c0-.3-.1-1.6-.1-1.6L5 42.9v-2.4-2.4h.1l1-.1h5.4v4.9l-.1 1.6-.2 1.6h.3l1-.1h.3c.4 0 1 0 1.7.1h.4c0-.3-.1-1.4-.1-1.4l.2-1.5v-6c.1-2.3.1-3.1.1-3.8"/><path id="svg_13" class="st0" d="M110.4 33.4l.1-2 .1-2c-.2 0-.8.1-.8.1h-.8c-.5 0-1.1 0-1.7-.1h-.4c0 .3.1 1.5.1 1.5l.1 1.6v3.7h-6.6v-3.9l.1-1.5.1-1.4c-.2 0-.7.1-.7.1h-.8c-.4 0-1 0-1.8-.1-.2 0-.3 0-.4-.1V39.1c0 2.4 0 3.6-.1 4.6l-.1 1.2-.1 1.2h3l.8.1c0-.3-.1-1.6-.1-1.6l-.1-1.7v-2.4-2.4h.1l1-.1h5.5v4.9l-.1 1.6-.2 1.6h.3l1-.1h.3c.4 0 1 0 1.7.1h.4c0-.3-.1-1.4-.1-1.4l-.1-1.5v-6c.3-2.3.3-3.1.3-3.8"/><path id="svg_14" class="st1" d="M21.5 39.7l2.4-6.7.5 1.8.5 1.7.5 1.6.5 1.6h-4.4m9.4 4.2c-.1-.2-.2-.5-.4-1.3l-1-2.9c-.3-1-.5-1.7-.7-2.2l-.7-2.3-.5-1.7-.6-1.9-.3-1.1-.3-1.1c-.2 0-.7.1-.7.1H25l-.7-.1-.7-.1c-.1.2-.5 1.7-.5 1.7l-.5 1.6c-.3.8-.7 1.8-1.2 3.1l-.5 1.3-.4 1-.4 1c-.8 2-1.3 3.3-1.8 4.4l-.7 1.4-.6 1.3h1.9l.4.1c.1-.2.4-1.3.4-1.3l.4-1.3.4-1.2.4-1.2h5.3l.5 1.9.2.9c.1.3.2.6.2.9l.2.7.2.7c.2 0 1.1-.1 1.1-.1h2.1l.9.1c-.1-.2-.4-1.1-.4-1.1l-.3-1.3z"/><path id="svg_15" class="st1" d="M48.8 44.2c-.1-1.4-.1-3.1-.1-4.9v-4.9l.1-2.6.1-2.5c-.2 0-.9.1-.9.1h-2l-.9-.1V40c0 1.1 0 2.7-.1 4.8v1.3c.7 0 1.5-.1 2.6-.1h1.6c.9 0 1.7 0 3 .1l1.8.1s-.1-.5-.1-1.1c0-.7.1-1.1.1-1.1l-5.2.2"/><path id="svg_16" class="st1" d="M37.7 44.2c-.1-1.4-.1-3.1-.1-4.9v-4.9l.1-2.6.1-2.5c-.2 0-.9.1-.9.1h-2l-.9-.2V39.9c0 1.1 0 2.7-.1 4.8l-.1 1.3c.7 0 1.5-.1 2.6-.1H38c.9 0 1.7 0 3 .1l1.8.1s-.1-.5-.1-1.1c0-.7.1-1.1.1-1.1l-5.1.3"/></g></svg>