<svg version="1.1" id="Ebene_1" xmlns="http://www.w3.org/2000/svg" x="0" y="0" width="101.5" height="33.3" xml:space="preserve"><style>.st0{fill:#004077}</style><path class="st0" d="M101 9.5L92.1.6c-.4-.4-1-.6-1.6-.6-.5 0-1.1.2-1.5.6l-8.9 8.9c-.4.4-.6 1-.6 1.6 0 .6.2 1.1.6 1.6l3.7 3.7 5.2 5.2c.4.4 1 .6 1.6.6.6 0 1.1-.2 1.6-.6l2.5-2.5 4.5-4.5 1.9-1.9c.4-.4.6-1 .6-1.6-.1-.6-.3-1.2-.7-1.6"/><path d="M92.4 6.9s0 .1 0 0h-.5c0 .2-.2.3-.4.3h-.1c-.2 0-.4-.2-.4-.4l-.5-.1s-.1 0-.1-.1 0-.1.1-.1c0 0 .7-.1.9-.1.3 0 .9.3.9.3.1.1.2.2.1.2m1.7 1.5c1 0 1.3.6 1.3 1 .4-.5 1-2.4-1.5-2.9 0 0-.6-.1-.9-.2-.1 0-.2-.2-.3-.3-.1-.1-.1-.2-.2-.2-.6-.3-2-.4-3.2-.1-.6.1-2 .4-2 .4s.8.6.9.6c-.6.2-1.5.7-2.9 3.4.2-.1.9-.2 1.1-.2l-2 4.1c-.2.5-.5.9-.7 1.4l5.4 5.4c.4.4.8.6 1.2.6.4 0 .9-.2 1.3-.6 0 0 4.2-4.1 4.3-4.3.7-.8-2.3-4.4-3.7-3.8-.5.2-.3.6-.4 1v.6h-.2c-.2-.1-.2-.3-.2-.5 0-.5-.1-1.5-.1-2.2v-.7s.1-.9 1.1-1.4c1.1-.5 2.1-.2 2.1-.2 0-.3-.2-.5-.8-.5l-1.4-.1c.5-.5.6-.4 1.8-.3" fill="#fff"/><path class="st0" d="M5.8 10.4c-.6-.7-1.4-.9-2.2-.9H1.2v9h2.4c.9 0 1.6-.2 2.2-.8.7-.8.7-2.1.7-3.7 0-1.5 0-2.9-.7-3.6m.9 8c-.7.8-1.7 1.2-2.9 1.2H0V8.5h3.8c1.3 0 2.2.4 2.9 1.2 1 1.1 1 2.7 1 4.4 0 1.6 0 3.2-1 4.3m3.8 1.2V8.5h6.9v1.1h-5.7v3.9h4.9v1.1h-4.9v4h5.7v1.1l-6.9-.1zm13 .1c-2.2 0-3.9-1.5-3.9-3.7V8.5h1.2v7.3c0 1.7 1.1 2.8 2.7 2.8s2.7-1.1 2.7-2.8V8.5h1.2v7.4c0 2.2-1.6 3.8-3.9 3.8M33.7 9.5v10h-1.2v-10h-3.2v-1h7.6v1.1h-3.2zm8.1 10.2c-1.7 0-2.8-.4-3.8-1.5l.8-.8c.9.9 1.8 1.2 3 1.2 1.6 0 2.6-.7 2.6-2.1 0-.6-.2-1.1-.5-1.4-.3-.3-.6-.4-1.5-.5l-1.3-.2c-.9-.1-1.5-.4-2-.9-.6-.5-.9-1.2-.9-2.1 0-1.9 1.3-3.1 3.5-3.1 1.4 0 2.4.4 3.3 1.2l-.8.8c-.7-.6-1.4-1-2.6-1-1.5 0-2.4.8-2.4 2.1 0 .5.2 1 .5 1.3.3.3.9.5 1.5.6l1.3.2c1 .2 1.5.3 2 .8.6.5.9 1.3.9 2.2.2 2-1.3 3.2-3.6 3.2m9.8 0c-1.1 0-2.1-.4-2.8-1.1-1.1-1.1-1.1-2-1.1-4.5s.1-3.5 1.1-4.5c.7-.7 1.6-1.1 2.8-1.1 2 0 3.5 1.2 3.9 3.3h-1.2c-.3-1.4-1.3-2.2-2.6-2.2-.7 0-1.4.3-1.9.8-.7.7-.8 1.5-.8 3.8s.1 3.1.8 3.8c.5.5 1.2.8 1.9.8 1.4 0 2.4-.9 2.7-2.2h1.2c-.6 1.8-2 3.1-4 3.1m12.9-.1v-5.1h-5.3v5.1H58V8.5h1.2v5h5.3v-5h1.2v11.1h-1.2zm4.4 0V8.5h6.9v1.1h-5.7v3.9h4.8v1.1h-4.8v4h5.7v1.1l-6.9-.1zM1.4 25.2V27h2.9v1.3H1.4v3H0V24h4.8v1.3H1.4zM8.7 29H7.6c-.2 0-.4 0-.6.2-.1.1-.2.2-.2.4s.1.3.2.4c.1.1.3.2.6.2h.5c.1 0 .2-.1.4-.2.1-.1.2-.4.2-.7V29zm0 2.3v-.5c-.2.2-.4.3-.6.4-.2.1-.4.1-.8.1-.6 0-1.1-.2-1.4-.5-.1-.2-.2-.3-.3-.5-.1-.2-.1-.4-.1-.7 0-.2 0-.4.1-.6.1-.2.2-.4.3-.5.2-.1.3-.2.6-.3.2-.1.5-.1.8-.1h1.3v-.3c0-.3-.1-.5-.2-.6-.1-.2-.4-.2-.7-.2-.3 0-.5 0-.6.1-.1.1-.3.2-.4.3l-.9-.8c.3-.3.5-.5.8-.6.3-.1.6-.2 1.1-.2.8 0 1.3.2 1.7.5.4.3.6.8.6 1.4v3.5l-1.3.1zm9 0V28c0-.2 0-.3-.1-.5 0-.1-.1-.2-.2-.3-.1-.1-.2-.1-.3-.2h-.6c-.1 0-.2.1-.3.2-.1.1-.2.2-.2.3 0 .1-.1.3-.1.4v3.3h-1.3V28c0-.2 0-.3-.1-.5 0-.1-.1-.2-.2-.3s-.2-.1-.3-.2h-.6c-.1 0-.2.1-.3.2-.1.1-.2.2-.2.3 0 .1-.1.3-.1.5v3.2h-1.3v-5.4h1.3v.5c.2-.2.4-.3.6-.4.2-.1.5-.1.7-.1.6 0 1.1.2 1.4.7.2-.2.5-.4.7-.5s.6-.2.9-.2c.3 0 .5 0 .7.1.2.1.4.2.6.4.2.2.4.4.4.7.1.2.1.5.1.8v3.4l-1.2.1zm2.8-5.4h1.3v5.4h-1.3v-5.4zm0-2h1.4V25h-1.4v-1.1zm4.4 7.4c-.3 0-.5 0-.7-.1-.2-.1-.4-.2-.5-.4-.1-.1-.2-.3-.3-.5s-.1-.4-.1-.6v-5.8h1.3v5.7c0 .2 0 .3.1.4.1.1.2.1.4.1h.5v1.1l-.7.1zm1.8-5.4H28v5.4h-1.3v-5.4zm0-2h1.4V25h-1.4v-1.1zm5.9 4.2v-.3c0-.1 0-.2-.1-.3-.1-.2-.2-.3-.3-.4-.2-.1-.4-.1-.6-.1-.2 0-.4 0-.6.2-.2.1-.3.2-.3.4 0 .1-.1.2-.1.3v.3h2v-.1zm-2 .9c0 .4.1.6.3.9.2.2.5.3.9.3.3 0 .5 0 .7-.1.2-.1.3-.2.5-.4l.8.8c-.1.1-.3.2-.4.4-.1.1-.3.2-.4.3s-.3.1-.5.2c-.2 0-.4.1-.6.1-.3 0-.6 0-.9-.1-.3-.1-.6-.2-.8-.4-.2-.2-.4-.5-.6-.9-.1-.4-.2-.8-.2-1.3 0-.4.1-.8.2-1.2s.3-.6.5-.9c.2-.2.4-.4.7-.5.3-.1.6-.2 1-.2s.7.1 1 .2c.3.1.5.3.7.5.2.2.4.5.4.8.1.3.2.6.2 1v.5h-3.5zm7.7 2.3V28c0-.2 0-.3-.1-.5 0-.1-.1-.2-.2-.3-.1-.1-.2-.1-.3-.2h-.6c-.1 0-.2.1-.3.2s-.2.2-.2.3c0 .1-.1.3-.1.5v3.2h-1.3v-5.4h1.3v.5c.2-.2.4-.3.6-.4.2-.1.5-.1.7-.1.3 0 .5 0 .7.1.2.1.4.2.5.4.2.2.4.4.4.7.1.2.1.5.1.8v3.4l-1.2.1zm5.1 0h-1.1l-2-5.4h1.4l1.1 3.3 1.1-3.3h1.4l-1.9 5.4zm5.8-3.2v-.3c0-.1 0-.2-.1-.3-.1-.2-.2-.3-.3-.4-.2-.1-.4-.1-.6-.1-.2 0-.4 0-.6.2-.2.1-.3.2-.3.4 0 .1-.1.2-.1.3v.3h2v-.1zm-2 .9c0 .4.1.6.3.9.2.2.5.3.9.3.3 0 .5 0 .7-.1.2-.1.3-.2.5-.4l.8.8c-.1.1-.3.2-.4.4-.1.1-.3.2-.4.3s-.3.1-.5.2c-.2 0-.4.1-.6.1-.3 0-.6 0-.9-.1-.3-.1-.6-.2-.8-.4-.2-.2-.4-.5-.6-.9-.1-.4-.2-.8-.2-1.3 0-.4.1-.8.2-1.2s.3-.6.5-.9c.2-.2.4-.4.7-.5.3-.1.6-.2 1-.2s.7.1 1 .2c.3.1.5.3.7.5.2.2.4.5.4.8.1.3.2.6.2 1v.5h-3.5zm7.5-1.6c-.1-.1-.2-.2-.3-.2-.1 0-.2-.1-.4-.1-.1 0-.2 0-.3.1-.1 0-.2.1-.3.2-.1.1-.2.2-.2.3 0 .1-.1.3-.1.4v3.2h-1.3v-5.4h1.3v.5c.1-.2.3-.3.6-.4s.5-.2.8-.2.5 0 .7.1.4.2.6.4l-1.1 1.1zm5.8 2.2c0 .3-.1.6-.2.8-.1.2-.3.4-.5.5-.2.1-.4.2-.7.3-.3.1-.6.1-.9.1h-.6c-.2 0-.4 0-.6-.1-.2 0-.4-.1-.6-.2-.2-.1-.4-.2-.5-.4l.9-.9c.2.2.5.4.7.4.3.1.5.1.7.1h.3c.1 0 .2 0 .3-.1.1 0 .2-.1.2-.2s.1-.2.1-.2c0-.1 0-.2-.1-.3-.1-.1-.2-.1-.4-.2l-.9-.1c-.5 0-.9-.2-1.1-.4-.3-.2-.4-.6-.4-1.1 0-.3.1-.5.2-.7.1-.2.3-.4.4-.5l.6-.3c.2-.1.5-.1.8-.1.4 0 .8 0 1.1.1.3.1.6.2.9.5l-.8.8c-.2-.1-.3-.2-.6-.3-.2 0-.4-.1-.7-.1-.3 0-.5 0-.6.2s-.2.2-.2.4c0 .1 0 .2.1.3.1.1.2.2.4.2l.9.1c.5 0 .9.2 1.2.5.5.1.6.5.6.9m1.1-3.7H63v5.4h-1.3v-5.4zm0-2H63V25h-1.4v-1.1zm6.8 6.7c-.2.2-.5.4-.8.6-.3.1-.6.2-1 .2-.3 0-.5 0-.8-.1-.3-.1-.5-.2-.8-.4-.2-.2-.4-.5-.6-.9s-.2-.8-.2-1.3.1-1 .2-1.3.3-.6.6-.8c.2-.2.5-.4.8-.4.3-.1.6-.1.8-.1.4 0 .7.1 1 .2.3.1.5.3.8.5l-.9.9c-.1-.2-.3-.3-.4-.3-.1-.3-.3-.4-.5-.4-.3 0-.6.1-.8.4-.1.1-.2.3-.2.5s-.1.4-.1.7c0 .6.1.9.3 1.2.2.2.4.4.8.4.2 0 .3 0 .5-.1.1-.1.3-.2.4-.3l.9.8zm4.1.7V28c0-.2 0-.3-.1-.4 0-.1-.1-.2-.2-.3-.1-.1-.2-.1-.3-.2h-.6c-.1 0-.2.1-.3.2-.1.1-.2.2-.2.3 0 .1-.1.3-.1.4v3.3h-1.3V24h1.3v2.5c.2-.2.4-.3.6-.4.2-.1.4-.1.7-.1.3 0 .6 0 .8.1.2.1.4.2.6.4.2.2.3.4.3.6.1.2.1.5.1.8v3.5l-1.3-.1zm5.9-3.2v-.3c0-.1 0-.2-.1-.3-.1-.2-.2-.3-.3-.4-.3-.1-.4-.1-.7-.1-.2 0-.4 0-.6.2-.2.1-.3.2-.3.4 0 .1-.1.2-.1.3v.3h2.1zm-2.1.9c0 .4.1.6.3.9.2.2.5.3.9.3.3 0 .5 0 .7-.1.2-.1.3-.2.5-.4l.8.8c-.1.1-.3.2-.4.4-.1.1-.3.2-.4.3-.2.1-.3.1-.5.2-.2 0-.4.1-.6.1-.3 0-.6 0-.9-.1-.3-.1-.6-.2-.8-.4-.2-.2-.4-.5-.6-.9-.1-.4-.2-.8-.2-1.3 0-.4.1-.8.2-1.2s.3-.6.5-.9c.2-.2.4-.4.7-.5.3-.1.6-.2 1-.2s.7.1 1 .2c.3.1.5.3.7.5.2.2.4.5.4.8.1.3.2.6.2 1v.5h-3.5zm7.5-1.6c-.1-.1-.2-.2-.3-.2-.1 0-.2-.1-.4-.1-.1 0-.2 0-.3.1-.1 0-.2.1-.3.2-.1.1-.2.2-.2.3 0 .1-.1.3-.1.4v3.2h-1.3v-5.4h1.3v.5c.1-.2.3-.3.6-.4.2-.1.5-.2.8-.2s.5 0 .7.1.4.2.6.4l-1.1 1.1zm4.9 3.9v-.5c-.2.2-.4.3-.6.4-.2.1-.5.1-.7.1-.3 0-.5 0-.7-.1-.2-.1-.4-.2-.5-.4-.2-.2-.4-.4-.4-.7-.1-.2-.1-.5-.1-.8v-3.4H87v3.2c0 .2 0 .3.1.5 0 .1.1.2.2.3.1.1.2.1.3.2h.6c.1 0 .2-.1.3-.2.1-.1.2-.2.2-.3 0-.1.1-.3.1-.5v-3.2H90v5.4h-1.3zm5.9 0V28c0-.2 0-.3-.1-.5 0-.1-.1-.2-.2-.3s-.2-.1-.3-.2h-.6c-.1 0-.2.1-.3.2-.1.1-.2.2-.2.3 0 .1-.1.3-.1.5v3.2h-1.3v-5.4h1.3v.5c.2-.2.4-.3.6-.4.2-.1.5-.1.7-.1.3 0 .5 0 .7.1.2.1.4.2.5.4.2.2.4.4.4.7.1.2.1.5.1.8v3.4l-1.2.1zm5.7-2.8V28c0-.2-.1-.3-.1-.4l-.3-.3c-.1-.1-.3-.1-.5-.1s-.4 0-.5.1l-.3.3c-.1.1-.1.3-.1.4v1c0 .2 0 .3.1.4.1.1.1.2.3.3.1.1.3.1.5.1s.4 0 .5-.1l.3-.3c.1-.1.1-.3.1-.4v-.5m1.3 2.6c0 .3 0 .6-.2.9-.1.3-.3.5-.5.7-.2.2-.4.4-.7.5-.3.1-.6.2-1 .2s-.8 0-1.1-.2c-.3-.1-.6-.3-.9-.6l.8-.9c.2.1.3.2.5.3.2.1.4.1.6.1.2 0 .4 0 .5-.1.1-.1.2-.2.3-.2.1-.1.2-.2.2-.4 0-.1.1-.3.1-.4v-.5c-.2.2-.4.3-.6.4-.1.1-.3.1-.6.1s-.5 0-.7-.1c-.2-.1-.4-.2-.6-.4-.2-.2-.4-.6-.5-.9 0-.4-.1-.8-.1-1.2 0-.5 0-.9.1-1.2 0-.3.2-.6.5-.9.2-.2.3-.3.6-.4.2-.1.5-.1.7-.1.3 0 .5 0 .7.1.2.1.4.2.6.4v-.5h1.3v5.3z"/></svg>