<svg version="1.1" id="Ebene_1" xmlns="http://www.w3.org/2000/svg" x="0" y="0" width="101.7" height="24.1" xml:space="preserve"><style>.st0{fill:#002d52}</style><path class="st0" d="M89.8 4.6h4.4c.1 0 .2.1.2.2V6c0 .1-.1.2-.2.2h-2.9v1.3h2.4c.1 0 .2.1.2.2v1.2c0 .1-.1.2-.2.2h-2.4v1.4h2.9c.1 0 .2.1.2.2V12c0 .1-.1.2-.2.2h-4.4c-.1 0-.2-.1-.2-.2V4.8c0-.1.1-.2.2-.2zm-4.5-.1c.9 0 1.9.4 2.6 1 .1.1.1.2 0 .3l-.9.9c-.1.1-.2.1-.3 0-.4-.4-.9-.5-1.4-.5-1.2 0-2.1 1-2.1 2.2 0 1.2 1.1 2.1 2.2 2.1.3 0 .5-.1.8-.2V9.1h-.7c-.1 0-.2-.1-.2-.2V8c0-.1.1-.2.2-.2h2.1c.3 0 .4.1.4.2v3.3c0 .1-.1.2-.1.2s-1.1.7-2.7.7c-2.1 0-3.8-1.7-3.8-3.8s1.8-3.9 3.9-3.9z"/><path class="st0" d="M63 15.5c0-.1.1-.1.1-.1h1.8c.7 0 1.4.6 1.4 1.4 0 .6-.4 1.1-1 1.3l.9 1.6c.1.1 0 .2-.1.2h-.7c-.1 0-.1-.1-.1-.1l-.9-1.7h-.6v1.6c0 .1-.1.1-.1.1h-.6c-.1 0-.1-.1-.1-.1v-4.2zm1.9 1.9c.5 0 .9-.5.5-1-.1-.1-.3-.2-.4-.2h-1.1v1.3l1-.1zm-5.8-2h2.6c.1 0 .1.1.1.1v.5c0 .1-.1.1-.1.1h-1.9v1.1h1.6c.1 0 .1.1.1.1v.5c0 .1-.1.1-.1.1h-1.6v1.2h1.9c.1 0 .1.1.1.1v.5c0 .1-.1.1-.1.1h-2.6c-.1 0-.1-.1-.1-.1v-4.2l.1-.1zm-5 .1c0-.1.1-.1.1-.1h.6c.1 0 .1.1.1.1v1.7h2v-1.7c0-.1.1-.1.1-.1h.6c.1 0 .1.1.1.1v4.2c0 .1-.1.1-.1.1H57c-.1 0-.1-.1-.1-.1V18h-2v1.8c0 .1-.1.1-.1.1h-.6c-.1 0-.1-.1-.1-.1v-4.3zm-2.6-.1c.6 0 1.1.2 1.5.6.1.1.1.1 0 .2l-.4.4c-.1.1-.1.1-.2 0-.3-.2-.6-.4-1-.4-.8 0-1.4.7-1.4 1.5s.6 1.5 1.4 1.5c.4 0 .7-.2 1-.4.1-.1.1-.1.2 0l.4.4c.1.1.1.1 0 .2-.4.4-1 .6-1.5.6-1.3 0-2.3-1-2.3-2.3 0-1.3 1-2.3 2.3-2.3zm-4.1.1c0-.1.1-.1.1-.1h.6c.1 0 .1.1.1.1v4.2c0 .1-.1.1-.1.1h-.6c-.1 0-.1-.1-.1-.1v-4.2zm-3.9 4c-.1-.1-.1-.1-.1-.2l.2-.4c.1-.1.2-.1.2-.1.3.2.5.4 1 .4.3 0 .6-.2.6-.5s-.3-.5-.8-.7c-.6-.3-1.2-.6-1.2-1.4 0-.6.4-1.2 1.4-1.2.6 0 1.2.3 1.3.4.1.1.1.2.1.2l-.3.4c-.1.1-.2.1-.2.1-.3-.2-.5-.4-.9-.4s-.6.2-.6.4c0 .3.2.5.7.7.6.3 1.3.6 1.3 1.4 0 .6-.6 1.3-1.5 1.3-.6 0-1-.3-1.2-.4zm-4.3-4c0-.1.1-.1.1-.1h1.8c.7 0 1.4.6 1.4 1.4 0 .6-.4 1.1-1 1.3l.9 1.6c.1.1 0 .2-.1.2h-.7c-.1 0-.1-.1-.1-.1l-.9-1.7h-.7v1.6c0 .1-.1.1-.1.1h-.5c-.1 0-.1-.1-.1-.1v-4.2zm1.9 1.9c.5 0 .9-.5.5-1-.1-.1-.3-.2-.4-.2h-1.1v1.3l1-.1zm-5.7-2H38c.1 0 .1.1.1.1v.5c0 .1-.1.1-.1.1h-2v1.1h1.6c.1 0 .1.1.1.1v.5c0 .1-.1.1-.1.1H36v1.2h2c.1 0 .1.1.1.1v.5c0 .1-.1.1-.1.1h-2.6c-.1 0-.1-.1-.1-.1v-4.2c-.1 0 0-.1.1-.1zm-5.3.2c-.1-.1 0-.2.1-.2h.6c.1 0 .1.1.1.1l1.2 2.8h.1l1.2-2.8c0-.1.1-.1.1-.1h.6c.1 0 .2.1.1.2l-2 4.3c0 .1-.1.1-.1.1H32c-.1 0-.1-.1-.1-.1l-1.8-4.3z" id="svgId0"/><path class="st0" d="M96 4.8c0-.1.1-.2.2-.2h3.2c1.3 0 2.3 1 2.3 2.3 0 1-.6 1.8-1.6 2.1l1.4 2.7c.1.2 0 .3-.2.3h-1.4c-.1 0-.2-.1-.2-.1l-1.4-2.8h-.7v2.7c0 .1-.1.2-.2.2h-1.3c-.1 0-.2-.1-.2-.2l.1-7zm3.2 3c.4 0 .8-.4.8-.9s-.4-.8-.8-.8h-1.6v1.6h1.6zm-24.3-3c0-.1.1-.2.2-.2h3.2c1.3 0 2.3 1 2.3 2.3 0 1-.6 1.8-1.6 2.1l1.4 2.7c.1.2 0 .3-.2.3h-1.4c-.1 0-.2-.1-.2-.1l-1.4-2.8h-.7v2.7c0 .1-.1.2-.2.2H75c-.1 0-.2-.1-.2-.2l.1-7zm3.2 3c.4 0 .8-.4.8-.9s-.4-.8-.8-.8h-1.6v1.6h1.6zm-9.4-3.2h4.4c.1 0 .2.1.2.2V6c0 .1-.1.2-.2.2h-2.9v1.3h2.4c.1 0 .2.1.2.2v1.2c0 .1-.1.2-.2.2h-2.4v1.4h2.9c.1 0 .2.1.2.2V12c0 .1-.1.2-.2.2h-4.4c-.1 0-.2-.1-.2-.2V4.8c0-.1.1-.2.2-.2zm-3.1 3.7c.6.2 1.4.7 1.4 1.7 0 1.3-1.1 2.1-2.3 2.1H62c-.1 0-.2-.1-.2-.2V4.8c0-.1.1-.2.2-.2h2.5c1.3 0 2.3.9 2.3 2 0 .8-.6 1.4-1.2 1.7zm-1.2-.6c.4 0 .7-.3.7-.7 0-.4-.3-.7-.7-.7h-.9v1.5c0-.1.9-.1.9-.1zm0 2.8c.5 0 .9-.3.9-.7-.1-.4-.3-.8-.9-.8h-.9v1.5h.9zm-10.5-6h.1c.1 0 .2.1.2.1l4.1 4V4.8c0-.1.1-.2.2-.2h1.3c.1 0 .2.1.2.2V12c0 .1-.1.2-.2.2h-.1c-.1 0-.2-.1-.2-.1l-4.1-4.2v3.9c0 .1-.1.2-.2.2h-1.3c-.1 0-.2-.1-.2-.2V4.7c-.1-.1 0-.2.2-.2zm-7.5.3c0-.1.1-.2.2-.2h3.2c1.3 0 2.3 1 2.3 2.3 0 1-.6 1.8-1.6 2.1l1.4 2.7c.1.2 0 .3-.2.3h-1.4c-.1 0-.2-.1-.2-.1l-1.4-2.8H48v2.7c0 .1-.1.2-.2.2h-1.3c-.1 0-.2-.1-.2-.2l.1-7zm3.2 3c.4 0 .8-.4.8-.9s-.4-.7-.8-.7H48v1.6h1.6zM30.4 4.5h.2c.1 0 .2.1.2.1l4.1 4V4.8c0-.1.1-.2.2-.2h1.3c.1 0 .2.1.2.2V12c0 .1-.1.2-.2.2h-.1c-.1 0-.2-.1-.2-.1L32 7.9v3.9c0 .1-.1.2-.2.2h-1.3c-.1 0-.2-.1-.2-.2V4.7c-.2-.1-.1-.2.1-.2z" id="svgId1"/><path class="st0" d="M41.9 5.4h-1.1c-.1 0-.2-.1-.2-.2v-.9c0-.1.1-.2.2-.2h1.1c.1 0 .2.1.2.2v.9c.1.1 0 .2-.2.2z"/><path class="st0" d="M44.3 4.6H43c-.1 0-.2.1-.2.2v4.4c0 .8-.4 1.3-1.4 1.3-1 0-1.4-.5-1.4-1.3V4.8c0-.1-.1-.2-.2-.2h-1.3c-.1 0-.2.1-.2.2v4.5c0 1.6 1.2 2.9 3.1 2.9s3.1-1.3 3.1-2.9V4.8c.1-.1-.1-.2-.2-.2zm34.8 10.8c.6 0 1.1.2 1.5.6.1.1.1.1 0 .2l-.4.4c-.1.1-.1.1-.2 0-.3-.3-.6-.4-1-.4-.8 0-1.4.7-1.4 1.5s.6 1.4 1.4 1.4c.4 0 .6-.1.7-.2v-.8h-.5c-.1 0-.1-.1-.1-.1v-.4c0-.1.1-.1.1-.1h1.2c.1 0 .1.1.1.1v1.9c0 .1 0 .1-.1.1 0 0-.6.4-1.6.4-1.3 0-2.3-1-2.3-2.3.2-1.3 1.3-2.3 2.6-2.3zm-6.9 0h.1c.1 0 .1 0 .1.1l2.6 2.8v-2.7c0-.1.1-.1.1-.1h.6c.1 0 .1.1.1.1v4.3c0 .1-.1.1-.1.1h-.1c-.1 0-.1 0-.2-.1L72.9 17v2.8c0 .1-.1.1-.1.1h-.6c-.1 0-.1-.1-.1-.1v-4.3c0-.1 0-.1.1-.1zm-1.4 0h-.6c-.1 0-.1.1-.1.1v2.7c0 .5-.3 1-1 1-.6 0-1-.4-1-1v-2.7c0-.1-.1-.1-.1-.1h-.6c-.1 0-.1.1-.1.1v2.7c0 1 .7 1.7 1.8 1.7s1.8-.7 1.8-1.7v-2.7s0-.1-.1-.1zM12.6 10.3H6.1c-.1 0-.1.1-.1.1v.5l.6 1.4v3.9c0 .1.1.1.1.1H12c.1 0 .1-.1.1-.1v-4l.6-1.4v-.5h-.1zm6 3.7c0-.1 0-.1-.1-.1h-5.2c-.1 0-.1.1-.1.1l.2.5v2.6s0 .1.1.1l1.9 1.5c.1 0 .1.1.1.1h2.7c.1 0 .1-.1.1-.1V14.5l.3-.5z"/><path class="st0" d="M12.1 0C5.4 0 0 5.4 0 12.1s5.4 12.1 12.1 12.1 12.1-5.4 12.1-12.1S18.7 0 12.1 0zm7.5 19.9h-4.4c-.1 0-.1 0-.1-.1l-2.9-2.3c-.1 0-.1-.1-.1-.1l-9.4.1c-.9-1.6-1.5-3.5-1.5-5.4C1.2 6.1 6 1.2 12 1.2 18 1.2 22.8 6 22.8 12c.1 3.2-1.2 5.9-3.2 7.9z"/><path class="st0" d="M11 5.6H7.7c-.1 0-.1-.1-.1-.1l1.6-2.2c.1-.1.1-.1.1 0l1.6 2.2c.2 0 .2.1.1.1zm2.1 3.5H5.6c-.1 0-.1-.1-.1-.1l2.3-2.3h3.1L13.2 9l-.1.1zm5 2.4c0-.1-.1-.1-.2 0l-.4 1.1c0 .1-.1.1-.2 0L16 9.4c0-.1-.1-.1-.2 0l-1.4 3.3c0 .1-.1.1-.2 0l-.5-1.1c0-.1-.1-.1-.2 0l-.4 1.2c0 .1 0 .1.1.1h5.2c.1 0 .1-.1.1-.1.1-.1-.4-1.3-.4-1.3z"/></svg>