<svg version="1.1" id="Ebene_1" xmlns="http://www.w3.org/2000/svg" x="0" y="0" width="92.9" height="31.8" xml:space="preserve"><style>.st0{fill:#00688b}</style><path class="st0" d="M91.3 9.2c-2.6-.2-4.6-1.5-4.6-1.5l-1.5 3.1-.3.7V9.8l-4.4-2-1.7 3.4 2 .9v13.4l4.2-.9V14.3l1.3-2.6s1.3.8 3.4 1c-.1.1 1.6-3.5 1.6-3.5zM35.1 11.4h-2.4l1.5-3.3h.9V6.8l4.2-2.3v3.6H42l-1.5 3.3h-1.2v9.2c.9.7 2.6 1.2 2.6 1.2l-1.8 3.6s-3.1-.9-5-2.5c.1 0 0-11.5 0-11.5zM53.7 28.6V10l-5.1-2.3-1.3 2.6c-.1.3-.3.7-.3.7V4.7c0-2.1-.6-3.5-.6-3.5l-4 2.1s.3 1.5.3 2.7v19.5l4.2-.9v-11l1-2 1.5.7v18.3l4.3-2zM6.3 9.5l-.2.6c-.2.7-.6 1.9-.6 3.4 0 6.2 3.6 8.9 8 8.9 1 0 1.5-.2 1.5-.2s.6-1.9.6-4.3c0-3.7-1.5-5.4-2.5-5.7l-1.3.9 1.3 4.8-3.8 2.7-2.8-10.5-.2-.6zm5.1 2l3.9-2.9c2.3.5 4.9 3.6 4.9 7.2s-.7 5.4-.7 5.4l-5.6 4.2s-1.2.1-2.6.1C3.5 25.4 1 19.7 1 15.3c0-2.8.8-4.2.8-4.2l4.1-2.9-.3-1.5L11.9 2c3.5 1.5 8 2.2 8 2.2l-4.4 3.2s-2.9-.5-5.5-1.7c-.2 0-.4-.2-.4-.2s.1.2.2.5l1.6 5.5z"/><path class="st0" d="M6.3 9.5l-.2.6c-.2.7-.6 1.9-.6 3.4 0 6.2 3.6 8.9 8 8.9 1 0 1.5-.2 1.5-.2s.6-1.9.6-4.3c0-3.7-1.5-5.4-2.5-5.7l-1.3.9 1.3 4.8-3.8 2.7-2.8-10.5-.2-.6zm5.1 2l3.9-2.9c2.3.5 4.9 3.6 4.9 7.2s-.7 5.4-.7 5.4l-5.6 4.2s-1.2.1-2.6.1C3.5 25.4 1 19.7 1 15.3c0-2.8.8-4.2.8-4.2l4.1-2.9-.3-1.5L11.9 2c3.5 1.5 8 2.2 8 2.2l-4.4 3.2s-2.9-.5-5.5-1.7c-.2 0-.4-.2-.4-.2s.1.2.2.5l1.6 5.5zM74.9 15.8l-2.2.7V10s.2.6.5 1.3c0 .1 1.7 4.5 1.7 4.5zm3 6s-3.2-.6-5.2-1.9v-1.7l6.8-2-3.4-8.5-7.5 2.3v12.1c3 2.4 7.6 3.4 7.6 3.4l1.7-3.7zM62.3 21.6s-1.3-.2-2.2-.9v-9l2.2 1v8.9zm-1.7 3.6l1.3-2.7.3-.6V25.3l4.1-.9v-14l-5.9-2.7-4.4 3.4V23c1.8 1.5 4.6 2.2 4.6 2.2zM28.2 21.8c-1.4-.3-2.2-.9-2.2-.9v-9.2l2.2 1v9.1zm4.1-.3V10.4l-5.9-2.7-4.5 3.4V23c2.1 1.6 5.3 2.4 5.3 2.4l5.1-3.9z"/></svg>