<svg version="1.1" id="Ebene_1" xmlns="http://www.w3.org/2000/svg" xmlns:xlink="http://www.w3.org/1999/xlink" x="0" y="0" width="89.5" height="23.5" xml:space="preserve"><style>.st0{fill-rule:evenodd;clip-rule:evenodd}.st0,.st1{fill:#004a93}</style><path class="st0" d="M8.5 12.9H5.2l1.7-5.6 1.6 5.6zm-4.8 5.7l1-3.4h4.2l1 3.4h3.5l-3.7-13c-.2-.9-.6-1.2-1.5-1.2H3.1v1.2h.4c.6 0 .9.2.9.7 0 .3 0 .5-.3 1.2L.4 18.6"/><path class="st1" d="M17.8 18.6V5.5c0-.7-.4-1-1.1-1h-3.2v1.2h.2c.6 0 .9.3.9.8v12.2M23.5 18.6V5.5c0-.7-.4-1-1.1-1h-3.2v1.2h.2c.6 0 .9.3.9.8v12.2"/><path class="st0" d="M29.3 5.7c0-.9-.7-1.5-1.8-1.5-1.2 0-1.8.6-1.8 1.5 0 1 .6 1.5 1.8 1.5 1.1 0 1.8-.6 1.8-1.5m-.1 12.9V9c0-.7-.4-1.1-1-1.1H25v1.2h.2c.6 0 .8.3.8.8v8.6M36.7 13.5v2.1c-.6.6-1.3 1-1.9 1-.6 0-.9-.3-.9-1.1 0-.9.2-1.2.9-1.5.5-.3 1-.4 1.9-.5m-4.5-2.6l.3-.1c.8-.3 1.3-.4 1.9-.6.3 0 .7-.1.9-.1 1 0 1.3.3 1.3 1.3v.3c-1.4.2-1.8.3-2.7.5-.4.1-.8.2-1.2.4-1.3.5-1.9 1.6-1.9 3.2 0 2 .8 3 2.7 3 .7 0 1.4-.2 1.9-.5.5-.2.7-.4 1.3-.9v.3c0 .7.3 1 .9 1h3.1v-1.1h-.1c-.6 0-.9-.3-.9-.8v-5.2c0-2.7-.9-3.6-3.6-3.6-.9 0-1.7.1-2.6.3-.8.2-1.2.3-2.1.8M45.6 18.6v-7.2c.7-.7 1.2-.9 1.9-.9s.9.3.9 1.4v6.7h3.2v-7.2c0-1.5-.2-2.1-.6-2.7-.5-.6-1.1-.8-2-.8-1.2 0-2.1.4-3.6 1.7V9c0-.7-.3-1-.9-1h-3.1v1.2h.1c.6 0 .9.3.9.8v8.6"/><defs><path id="SVGID_1_" d="M.4.5h89.1v23.1H.4z"/></defs><clipPath id="SVGID_2_"><use xlink:href="#SVGID_1_" overflow="visible"/></clipPath><path d="M61.4 16.6h-4.7l4.5-6.4V8h-6.7c-.8 0-1.1.3-1.1 1.1V11h1.1v-.2c0-.6.3-.8.9-.8h2.4l-4.6 6.4v2.2h8.2" clip-path="url(#SVGID_2_)" fill="#004a93"/><path d="M79.5 18V6c0-1-.4-1.3-1.3-1.3h-2.8V6h.3c.5 0 .7.2.7.8V18h3.1zm1.6 0h3V9c0-.9-.4-1.3-1.3-1.3h-1.6V18zm-6.3 0V7.7h-1.6c-.9 0-1.3.4-1.3 1.3v9h2.9zm12.7-6c0 5.6-4.1 9.7-9.6 9.7s-9.6-4.1-9.6-9.7 4.1-9.7 9.6-9.7c5.6 0 9.6 4.1 9.6 9.7m2 0C89.5 5.4 84.6.5 78 .5 71.5.5 66.5 5.4 66.5 12s5 11.5 11.5 11.5c6.6 0 11.5-4.9 11.5-11.5" clip-path="url(#SVGID_2_)" fill-rule="evenodd" clip-rule="evenodd" fill="#004a93"/></svg>