<svg xmlns="http://www.w3.org/2000/svg" xmlns:xlink="http://www.w3.org/1999/xlink" width="83.9" height="28.7"><defs><path id="a" d="M0 .2h83.9v28.6H0z"/></defs><clipPath id="b"><use xlink:href="#a" overflow="visible"/></clipPath><path d="M83.9 13.5c0-5.6-2.3-9.4-6.9-11.5C74.4.8 70.8.2 66.1.2H0v28.6h65.7c4.7 0 8.4-.6 11-1.9 4.8-2.4 7.2-6.8 7.2-13.4" clip-path="url(#b)" fill="#009fe3"/><defs><path id="c" d="M0 .2h83.9v28.6H0z"/></defs><clipPath id="d"><use xlink:href="#c" overflow="visible"/></clipPath><path d="M11 14.1v3.1h2.8c.5 0 .9-.1 1.2-.2.5-.2.8-.8.8-1.5 0-.6-.2-1-.7-1.3-.3-.1-.7-.2-1.1-.2h-3zm0-4.5v2.6h2.8c.5 0 .9-.1 1.2-.3.3-.2.5-.5.5-1s-.2-.9-.6-1.1c-.4-.1-.8-.2-1.4-.2H11zm6.3-.8c.3.5.5 1.1.5 1.8s-.2 1.3-.5 1.7c-.2.2-.5.5-.9.7.6.2 1 .6 1.3 1 .3.5.4 1 .4 1.7s-.2 1.3-.5 1.9c-.2.4-.5.7-.8.9-.4.3-.8.5-1.3.6-.5.1-1 .2-1.6.2H8.7V7.6h5.5c1.5 0 2.5.4 3.1 1.2" clip-path="url(#d)" fill="#fff"/><defs><path id="e" d="M0 .2h83.9v28.6H0z"/></defs><clipPath id="f"><use xlink:href="#e" overflow="visible"/></clipPath><path d="M24 15.1c-.1.1-.3.2-.4.2-.1 0-.3.1-.6.1l-.5.1c-.5.1-.8.2-1 .3-.3.2-.5.5-.5 1 0 .4.1.7.3.9.2.2.5.3.8.3.5 0 .9-.1 1.3-.4.4-.3.6-.8.6-1.6v-.9zM22.6 14c.4 0 .7-.1.9-.2.3-.1.5-.4.5-.7 0-.4-.1-.6-.4-.7-.2-.1-.6-.2-1.1-.2-.5 0-.9.1-1.1.4-.1.2-.3.5-.3.8H19c0-.8.3-1.4.6-1.9.6-.8 1.6-1.1 3-1.1.9 0 1.8.2 2.5.6.7.4 1.1 1.1 1.1 2.1v5c0 .3 0 .5.1.6l.3.3v.3h-2.4c-.1-.2-.1-.3-.1-.5s0-.3-.1-.5c-.3.3-.7.6-1.1.9-.5.3-1 .4-1.6.4-.8 0-1.4-.2-1.9-.7-.5-.4-.8-1.1-.8-1.9 0-1.1.4-1.8 1.2-2.3.4-.3 1.1-.4 2-.6l.8-.1z" clip-path="url(#f)" fill="#fff"/><g><defs><path id="g" d="M0 .2h83.9v28.6H0z"/></defs><clipPath id="h"><use xlink:href="#g" overflow="visible"/></clipPath><path d="M32 10.4h.2v2.3h-.7c-.9 0-1.5.3-1.8.9-.2.3-.3.9-.3 1.5v4.1h-2.2v-8.7h2.1V12c.3-.6.6-1 .9-1.2.5-.2 1.1-.4 1.8-.4" clip-path="url(#h)" fill="#fff"/></g><g><defs><path id="i" d="M0 .2h83.9v28.6H0z"/></defs><clipPath id="j"><use xlink:href="#i" overflow="visible"/></clipPath><path d="M43.6 10.6c.4.1.7.4 1 .8.2.3.4.7.5 1.1 0 .3.1.7.1 1.3v5.5h-2.3v-5.5c0-.3 0-.6-.1-.8-.2-.4-.6-.6-1.1-.6-.6 0-1 .3-1.3.8-.1.3-.2.6-.2 1v5.2H38v-5.2c0-.5 0-.9-.1-1.1-.2-.4-.6-.6-1.1-.6-.6 0-1.1.2-1.3.6-.1.2-.2.6-.2 1.1v5.2H33v-8.7h2.2V12c.3-.5.5-.8.8-1 .4-.3 1-.5 1.7-.5s1.2.1 1.6.4c.3.3.6.6.7 1 .3-.5.7-.9 1.1-1.1.5-.2 1-.4 1.5-.4.3 0 .7.1 1 .2" clip-path="url(#j)" fill="#fff"/></g><g><defs><path id="k" d="M0 .2h83.9v28.6H0z"/></defs><clipPath id="l"><use xlink:href="#k" overflow="visible"/></clipPath><path d="M48.7 12.7c-.3.3-.5.8-.6 1.3h3.8c0-.6-.2-1.1-.6-1.4-.4-.3-.8-.5-1.3-.5-.6.2-1.1.3-1.3.6m3.3-1.9c.6.3 1.1.7 1.5 1.3.3.5.6 1.1.7 1.8 0 .4.1 1 .1 1.7H48c0 .9.3 1.5.9 1.8.3.2.8.3 1.2.3.5 0 .9-.1 1.2-.4.2-.1.3-.3.5-.6h2.3c0 .5-.3 1-.8 1.6-.8.9-1.8 1.3-3.2 1.3-1.1 0-2.1-.4-3-1.1-.9-.7-1.3-1.9-1.3-3.5 0-1.5.4-2.7 1.2-3.5.8-.8 1.8-1.2 3-1.2.7.1 1.4.2 2 .5" clip-path="url(#l)" fill="#fff"/></g><g><defs><path id="m" d="M0 .2h83.9v28.6H0z"/></defs><clipPath id="n"><use xlink:href="#m" overflow="visible"/></clipPath><path d="M61.7 11.1c.6.5.8 1.2.8 2.3v5.8h-2.3V14c0-.5 0-.8-.2-1-.2-.4-.6-.7-1.2-.7-.8 0-1.3.3-1.5 1-.1.3-.2.8-.2 1.3v4.7h-2.2v-8.7H57v1.3c.3-.4.6-.8.8-1 .5-.3 1-.5 1.7-.5.9 0 1.7.2 2.2.7" clip-path="url(#n)" fill="#fff"/></g><path d="M63.5 10.6h2.3v8.7h-2.3v-8.7zm2.2-1h-2.3V7.5h2.3v2.1z" fill="#fff"/><g><defs><path id="o" d="M0 .2h83.9v28.6H0z"/></defs><clipPath id="p"><use xlink:href="#o" overflow="visible"/></clipPath><path d="M71.9 15.1c-.1.1-.3.2-.4.2-.1 0-.3.1-.6.1l-.5.1c-.5.1-.8.2-1 .3-.3.2-.5.5-.5 1 0 .4.1.7.3.9.2.2.5.3.8.3.5 0 .9-.1 1.3-.4.4-.3.6-.8.6-1.6v-.9zM70.5 14c.4 0 .7-.1.9-.2.3-.1.5-.4.5-.7 0-.4-.1-.6-.4-.7-.2-.1-.6-.2-1.1-.2-.5 0-.9.1-1.1.4-.1.2-.3.5-.3.8h-2.1c0-.8.3-1.4.6-1.9.6-.8 1.6-1.1 3-1.1.9 0 1.8.2 2.5.6.7.4 1.1 1.1 1.1 2.1v5c0 .3 0 .5.1.6l.3.3v.3h-2.4c0-.2-.1-.3-.1-.5 0-.1 0-.3-.1-.5-.3.3-.7.6-1.1.9-.5.3-1 .4-1.6.4-.8 0-1.4-.2-1.9-.7-.5-.4-.8-1.1-.8-1.9 0-1.1.4-1.8 1.2-2.3.4-.3 1.1-.4 2-.6l.8-.1z" clip-path="url(#p)" fill="#fff"/></g></svg>